<?xml version="1.0" standalone="no"?>
<!DOCTYPE svg PUBLIC "-//W3C//DTD SVG 1.1//EN" 
"http://www.w3.org/Graphics/SVG/1.1/DTD/svg11.dtd">

<svg version="1.1" xmlns="http://www.w3.org/2000/svg" width="600" height="600">
	<rect x="0" y="0" width="100%" height="100%" fill="white"/>
	<g id="bridle_sizes" transform="translate(35,10)" stroke="#3f3f3f" stroke-width="1">
		<rect x="0" y="0" width="50" height="20" fill="none"></rect>
		<rect x="0" y="30" width="50" height="20" fill="none"></rect>
		<rect x="0" y="60" width="50" height="20" fill="none"></rect>
		<rect x="0" y="90" width="50" height="20" fill="none"></rect>
		<rect x="0" y="120" width="50" height="20" fill="none"></rect>
		<rect x="0" y="150" width="50" height="20" fill="none"></rect>
		<rect x="0" y="180" width="50" height="20" fill="none"></rect>
		<rect x="0" y="210" width="50" height="20" fill="none"></rect>
		<rect x="0" y="240" width="50" height="20" fill="none"></rect>
		<rect x="0" y="270" width="50" height="20" fill="none"></rect>
		<rect x="0" y="300" width="50" height="20" fill="none"></rect>
		<rect x="0" y="330" width="50" height="20" fill="none"></rect>
		<rect x="0" y="360" width="50" height="20" fill="none"></rect>
		<rect x="0" y="410" width="50" height="20" fill="none"></rect>
		<rect x="0" y="440" width="50" height="20" fill="none"></rect>
		<rect x="0" y="470" width="50" height="20" fill="none"></rect>
		<rect x="0" y="500" width="50" height="20" fill="none"></rect>
		<rect x="0" y="530" width="50" height="20" fill="none"></rect>
		<rect x="0" y="560" width="50" height="20" fill="none"></rect>
		<rect x="450" y="120" width="50" height="20" fill="none"></rect>
	</g>
	<g id="bridle_names" transform="translate(5,25)">
		<text x="0" y="0">A0</text>
		<text x="0" y="30">A1</text>
		<text x="0" y="60">A2</text>
		<text x="0" y="90">A3</text>
		<text x="0" y="120">A4</text>
		<text x="0" y="150">A5</text>
		<text x="0" y="180">A6</text>
		<text x="0" y="210">A7</text>
		<text x="0" y="240">A8</text>
		<text x="0" y="270">A9</text>
		<text x="0" y="300">A10</text>
		<text x="0" y="330">A11</text>
		<text x="0" y="360">A12</text>
		<text x="0" y="410">B1</text>
		<text x="0" y="440">B2</text>
		<text x="0" y="470">B3</text>
		<text x="0" y="500">B4</text>
		<text x="0" y="530">B5</text>
		<text x="0" y="560">B6</text>
	</g>
	<g transform="translate(200, 270) rotate(-90)">
		<text x="0" y="0" style="font-size:30px;font-family:Arial;" fill="#7f7f7f" text-anchor="middle">Secundair</text>
	</g>	
	<g transform="translate(370, 270) rotate(-90)">
		<text x="0" y="0" style="font-size:30px;font-family:Arial;" fill="#7f7f7f" text-anchor="middle">Primair</text>
	</g>	
	<g id="bridles" transform="translate(85,20)" stroke-width="1">
		<line x1="0" y1="0" x2="400" y2="240" stroke="#00cf00"/>
		<g stroke="#3f3fff">
			<!-- secondaries -->
			<line x1="0" y1="30" x2="200" y2="135"/>
			<line x1="0" y1="60" x2="200" y2="135"/>
			<line x1="0" y1="90" x2="200" y2="165"/>
			<line x1="0" y1="120" x2="200" y2="165"/>
			<line x1="0" y1="150" x2="200" y2="195"/>
			<line x1="0" y1="180" x2="200" y2="195"/>
			<line x1="0" y1="210" x2="200" y2="225"/>
			<line x1="0" y1="240" x2="200" y2="225"/>
			<line x1="0" y1="270" x2="200" y2="255"/>
			<line x1="0" y1="300" x2="200" y2="255"/>

			<line x1="0" y1="410" x2="200" y2="332.5"/>
			<line x1="0" y1="440" x2="200" y2="332.5"/>
			<line x1="0" y1="470" x2="200" y2="362.5"/>
			<line x1="0" y1="500" x2="200" y2="362.5"/>
			<line x1="0" y1="530" x2="200" y2="392.5"/>
			<line x1="0" y1="560" x2="200" y2="392.5"/>

			<line x1="0" y1="330" x2="200" y2="345"/>
			<line x1="0" y1="360" x2="200" y2="345"/>
		</g>

		<g stroke="#ff3f3f">
			<!-- primaries -->

			<line x1="200" y1="135" x2="400" y2="240"/>
			<line x1="200" y1="165" x2="400" y2="240"/>
			<line x1="200" y1="195" x2="400" y2="240"/>
			<line x1="200" y1="225" x2="400" y2="240"/>
			<line x1="200" y1="255" x2="400" y2="240"/>

			<line x1="200" y1="332.5" x2="400" y2="240"/>
			<line x1="200" y1="362.5" x2="400" y2="240"/>
			<line x1="200" y1="392.5" x2="400" y2="240"/>

			<!-- brake lines -->
			<line x1="200" y1="345" x2="400" y2="345"/>
		</g>
	</g>
	<g id="qpoints" transform="translate(85,20)" stroke="#3f3f3f" stroke-width="5">
		<line x1="400" y1="240" x2="420" y2="240"/>
		<line x1="400" y1="345" x2="420" y2="345"/>
		<line x1="420" y1="240" x2="520" y2="240" stroke="#3f3f3f" stroke-width="1"/>
		<line x1="420" y1="345" x2="520" y2="345" stroke="#3f3f3f" stroke-width="1"/>
	</g>
</svg>
