<?xml version="1.0" standalone="no"?>
<!DOCTYPE svg PUBLIC "-//W3C//DTD SVG 1.1//EN" 
"http://www.w3.org/Graphics/SVG/1.1/DTD/svg11.dtd">

<svg version="1.1" xmlns="http://www.w3.org/2000/svg" width="600" height="240">
	<g id="template_center">
		<g transform="translate(130,10) scale(250,250)">
			<polygon points="-0.225,0 0.225,0 0.458,0.870 -0.458,0.870" style="fill:url(defs.svgdefs#main_flat); stroke:#000000; stroke-width:0.002"/>
			<line x1="-0.225" y1="0" x2="0.458" y2="0.870" style="stroke:#3f3f3f; stroke-dasharray:0.05,0.03; stroke-width:0.002"/>
			<line x1="0.225" y1="0" x2="-0.458" y2="0.870" style="stroke:#3f3f3f; stroke-dasharray:0.05,0.03; stroke-width:0.002"/>
		</g>
		<g transform="translate(470,10) scale(250,250)">
			<polygon points="-0.225,0 0.225,0 0.458,0.870 -0.458,0.870" style="fill:url(defs.svgdefs#main_flat); stroke:#000000; stroke-width:0.002"/>
			<line x1="-0.02" y1="0.66" x2="-0.02" y2="0.74" style="stroke:#000000; stroke-width:0.002"/>
			<line x1="0" y1="0.66" x2="0" y2="0.74" style="stroke:#000000; stroke-width:0.002"/>
			<line x1="0.02" y1="0.66" x2="0.02" y2="0.74" style="stroke:#000000; stroke-width:0.002"/>
			<line x1="-0.04" y1="0.68" x2="0.04" y2="0.68" style="stroke:#000000; stroke-width:0.002"/>
			<line x1="-0.04" y1="0.7" x2="0.04" y2="0.7" style="stroke:#000000; stroke-width:0.002"/>
			<line x1="-0.04" y1="0.72" x2="0.04" y2="0.72" style="stroke:#000000; stroke-width:0.002"/>
			<circle cx="0.4" cy="0.82" r="0.02" stroke="black" stroke-width="0.001" fill="#0000cf"/>
			<circle cx="-0.4" cy="0.82" r="0.02" stroke="black" stroke-width="0.001" fill="#cf0000"/>
		</g>
	</g>
</svg>
