<?xml version="1.0" standalone="no"?>
<!DOCTYPE svg PUBLIC "-//W3C//DTD SVG 1.1//EN" 
"http://www.w3.org/Graphics/SVG/1.1/DTD/svg11.dtd">

<svg version="1.1" xmlns="http://www.w3.org/2000/svg" width="670" height="230">
	<g id="template_edges">
		<g transform="translate(0,10) scale(250,250)">
			<polygon transform="translate(0.4,0)" points="0,0 0.345,0.832 -0.345,0.832" style="fill:url(defs.svgdefs#main_flat); stroke:#000000;stroke-width:0.002"/>
			<polygon transform="translate(1.5,0)" points="0,0 0.345,0.832 -0.345,0.832" style="fill:url(defs.svgdefs#left_flat); stroke:#000000;stroke-width:0.002"/>
			<g transform="translate(1.5,0)">
				<line x1="-0.02" y1="0.66" x2="-0.02" y2="0.74" style="stroke:#000000; stroke-width:0.002"/>
				<line x1="0" y1="0.66" x2="0" y2="0.74" style="stroke:#000000; stroke-width:0.002"/>
				<line x1="0.02" y1="0.66" x2="0.02" y2="0.74" style="stroke:#000000; stroke-width:0.002"/>
				<line x1="-0.04" y1="0.68" x2="0.04" y2="0.68" style="stroke:#000000; stroke-width:0.002"/>
				<line x1="-0.04" y1="0.7" x2="0.04" y2="0.7" style="stroke:#000000; stroke-width:0.002"/>
				<line x1="-0.04" y1="0.72" x2="0.04" y2="0.72" style="stroke:#000000; stroke-width:0.002"/>
				<circle cx="0.28" cy="0.79" r="0.02" stroke="black" stroke-width="0.001" fill="#cf0000"/>
			</g>
			<polygon transform="translate(2.3,0)" points="0,0 0.345,0.832 -0.345,0.832" style="fill:url(defs.svgdefs#right_flat); stroke:#000000;stroke-width:0.002"/>
			<g transform="translate(2.3,0)">
				<line x1="-0.02" y1="0.66" x2="-0.02" y2="0.74" style="stroke:#000000; stroke-width:0.002"/>
				<line x1="0" y1="0.66" x2="0" y2="0.74" style="stroke:#000000; stroke-width:0.002"/>
				<line x1="0.02" y1="0.66" x2="0.02" y2="0.74" style="stroke:#000000; stroke-width:0.002"/>
				<line x1="-0.04" y1="0.68" x2="0.04" y2="0.68" style="stroke:#000000; stroke-width:0.002"/>
				<line x1="-0.04" y1="0.7" x2="0.04" y2="0.7" style="stroke:#000000; stroke-width:0.002"/>
				<line x1="-0.04" y1="0.72" x2="0.04" y2="0.72" style="stroke:#000000; stroke-width:0.002"/>
				<circle cx="-0.28" cy="0.79" r="0.02" stroke="black" stroke-width="0.001" fill="#0000cf"/>
			</g>
		</g>
	</g>
</svg>
